<?xml version="1.0" encoding="UTF-8" standalone="no"?>
<!-- Created with Inkscape (http://www.inkscape.org/) -->

<svg
   xmlns:dc="http://purl.org/dc/elements/1.1/"
   xmlns:cc="http://creativecommons.org/ns#"
   xmlns:rdf="http://www.w3.org/1999/02/22-rdf-syntax-ns#"
   xmlns:svg="http://www.w3.org/2000/svg"
   xmlns="http://www.w3.org/2000/svg"
   xmlns:sodipodi="http://sodipodi.sourceforge.net/DTD/sodipodi-0.dtd"
   xmlns:inkscape="http://www.inkscape.org/namespaces/inkscape"
   width="33.93597mm"
   height="14.469979mm"
   viewBox="0 0 33.93597 14.469979"
   version="1.1"
   id="svg4657"
   inkscape:version="0.92.3 (2405546, 2018-03-11)"
   sodipodi:docname="cloud2.svg">
  <defs
     id="defs4651" />
  <sodipodi:namedview
     id="base"
     pagecolor="#ffffff"
     bordercolor="#666666"
     borderopacity="1.0"
     inkscape:pageopacity="0.0"
     inkscape:pageshadow="2"
     inkscape:zoom="1.979899"
     inkscape:cx="-58.825531"
     inkscape:cy="17.831035"
     inkscape:document-units="mm"
     inkscape:current-layer="layer1"
     showgrid="false"
     fit-margin-top="0"
     fit-margin-left="0"
     fit-margin-right="0"
     fit-margin-bottom="0"
     inkscape:window-width="2560"
     inkscape:window-height="1346"
     inkscape:window-x="-11"
     inkscape:window-y="-11"
     inkscape:window-maximized="1" />
  <metadata
     id="metadata4654">
    <rdf:RDF>
      <cc:Work
         rdf:about="">
        <dc:format>image/svg+xml</dc:format>
        <dc:type
           rdf:resource="http://purl.org/dc/dcmitype/StillImage" />
        <dc:title></dc:title>
      </cc:Work>
    </rdf:RDF>
  </metadata>
  <g
     inkscape:label="Layer 1"
     inkscape:groupmode="layer"
     id="layer1"
     transform="translate(-19.241432,-106.18858)">
    <path
       style="fill:#ffffff;fill-opacity:1;stroke:#080808;stroke-width:3.77952766;stroke-linecap:round;stroke-linejoin:round;stroke-miterlimit:4;stroke-dasharray:none;stroke-opacity:1"
       d="m 146.60742,403.23242 a 31.966084,31.966084 0 0 0 -31.01172,24.36914 18.214285,18.214285 0 0 0 -6.31054,-1.15429 18.214285,18.214285 0 0 0 -18.212894,18.21484 18.214285,18.214285 0 0 0 0.01367,0.41601 10.93392,10.93392 0 0 0 -5.550782,-1.52734 10.93392,10.93392 0 0 0 -10.921875,10.5918 H 198.35742 a 16.596426,16.596426 0 0 0 0.73828,-4.83789 16.596426,16.596426 0 0 0 -16.5957,-16.59571 16.596426,16.596426 0 0 0 -3.99609,0.50586 31.966084,31.966084 0 0 0 -31.89649,-29.98242 z"
       id="path5276"
       transform="scale(0.26458333)"
       inkscape:connector-curvature="0" />
  </g>
</svg>
