<?xml version="1.0" encoding="UTF-8" standalone="no"?>
<!-- Created with Inkscape (http://www.inkscape.org/) -->

<svg
   xmlns:dc="http://purl.org/dc/elements/1.1/"
   xmlns:cc="http://creativecommons.org/ns#"
   xmlns:rdf="http://www.w3.org/1999/02/22-rdf-syntax-ns#"
   xmlns:svg="http://www.w3.org/2000/svg"
   xmlns="http://www.w3.org/2000/svg"
   xmlns:sodipodi="http://sodipodi.sourceforge.net/DTD/sodipodi-0.dtd"
   xmlns:inkscape="http://www.inkscape.org/namespaces/inkscape"
   width="33.89468mm"
   height="15.86062mm"
   viewBox="0 0 33.89468 15.86062"
   version="1.1"
   id="svg5296"
   inkscape:version="0.92.3 (2405546, 2018-03-11)"
   sodipodi:docname="cloud1.svg">
  <defs
     id="defs5290" />
  <sodipodi:namedview
     id="base"
     pagecolor="#ffffff"
     bordercolor="#666666"
     borderopacity="1.0"
     inkscape:pageopacity="0.0"
     inkscape:pageshadow="2"
     inkscape:zoom="0.35"
     inkscape:cx="-207.37573"
     inkscape:cy="215.68708"
     inkscape:document-units="mm"
     inkscape:current-layer="layer1"
     showgrid="false"
     fit-margin-top="0"
     fit-margin-left="0"
     fit-margin-right="0"
     fit-margin-bottom="0"
     inkscape:window-width="2560"
     inkscape:window-height="1346"
     inkscape:window-x="-11"
     inkscape:window-y="-11"
     inkscape:window-maximized="1" />
  <metadata
     id="metadata5293">
    <rdf:RDF>
      <cc:Work
         rdf:about="">
        <dc:format>image/svg+xml</dc:format>
        <dc:type
           rdf:resource="http://purl.org/dc/dcmitype/StillImage" />
        <dc:title></dc:title>
      </cc:Work>
    </rdf:RDF>
  </metadata>
  <g
     inkscape:label="Layer 1"
     inkscape:groupmode="layer"
     id="layer1"
     transform="translate(-5.7312562,-190.03992)">
    <path
       inkscape:connector-curvature="0"
       style="fill:#ffffff;fill-opacity:1;stroke:#080808;stroke-width:1;stroke-linecap:round;stroke-linejoin:round;stroke-miterlimit:4;stroke-dasharray:none;stroke-opacity:1"
       d="m 24.663726,190.53994 a 8.9504176,8.7614297 0 0 0 -8.85166,7.52719 6.6778672,5.2839694 0 0 0 -2.9037,-0.5302 6.6778672,5.2839694 0 0 0 -6.6771098,5.28443 6.6778672,5.2839694 0 0 0 0.85834,2.57918 H 18.733336 a 6.6778672,5.2839694 0 0 0 0.0326,-0.0517 h 12.35997 6.852811 a 4.574726,4.5747265 0 0 0 1.147221,-3.02359 4.574726,4.5747265 0 0 0 -4.574912,-4.57491 4.574726,4.5747265 0 0 0 -1.06557,0.13125 8.9504176,8.7614297 0 0 0 -8.82168,-7.34167 z"
       id="path4659" />
  </g>
</svg>
